<svg><defs><font horiz-adv-x="556"><font-face font-family="BitstreamCharterItalic" font-weight="400" font-style="italic" panose-1="2 0 5 3 7 0 0 9 0 4" ascent="800" descent="-200" x-height="483" cap-height="671" bbox="-151 -236 1004 980" underline-thickness="61" underline-position="-49" slope="11" unicode-range="U+0020-FB04"/><glyph glyph-name=".notdef" horiz-adv-x="278"/><glyph glyph-name=".null" horiz-adv-x="0"/><glyph glyph-name="nonmarkingreturn" horiz-adv-x="333"/><glyph glyph-name="space" horiz-adv-x="278"/><glyph glyph-name="exclam" unicode="!" horiz-adv-x="338" d="M64 48q0 23 16.5 40t39.5 17q24 0 41-17t17-40q0-24-17-40.5t-41-16.5q-23 0-39.5 16.5t-16.5 40.5zm49 123l45 382q8 70 24 100t54 30q44 0 44-45 0-22-17-85l-101-382h-49z"/><glyph glyph-name="quotedbl" unicode=""" horiz-adv-x="331" d="M44 665q0 49 41 49 42 0 42-49 0-4-2-20l-32-223h-16l-31 223q-2 14-2 20zm160-1q0 50 42 50 41 0 41-49 0-12-1-20l-33-223h-15l-32 223q-2 14-2 19z"/><glyph glyph-name="numbersign" unicode="#" horiz-adv-x="745" d="M64 230v47h159l48 146h-158v47h174l83 240 47-18-79-222h154l80 239 47-17-78-222h139v-47h-155l-49-146h163v-47h-179l-84-253-47 16 80 237h-153l-83-253-47 16 82 237h-144zm210 47h149l51 146h-151z"/><glyph glyph-name="dollar" unicode="$" d="M21 44l32 153h52l-10-112 9-12q53-26 100-27l50 260q-75 34-110.5 73.5t-35.5 92.5q0 77 60 133.5t156 63.5l14 74h41l-13-71q67-1 148-30l-31-146h-45l5 96-12 17q-36 16-74 18l-48-252q82-29 120.5-70t38.5-99q0-83-61-138t-170-68l-20-102h-42l20 102q-101 4-174 44zm170 454q0-69 79-103l45 231q-58-11-91-46t-33-82zm57-451q64 12 98 47t34 87q0 39-20.5 64t-65.5 42z"/><glyph glyph-name="percent" unicode="%" horiz-adv-x="852" d="M50 404q0 106 50 188 56 91 147 91 55 0 86.5-37.5t31.5-103.5q0-104-51-187-56-91-147-91-55 0-86 37t-31 103zm66-404l557 671h61l-557-671h-61zm2 388q0-88 56-88 49 0 81 72 39 85 39 186 0 89-55 89-49 0-82-73-39-86-39-186zm369-259q0 105 50 187 56 91 147 91 55 0 86.5-37t31.5-103q0-104-51-187-57-92-147-92-55 0-86 37t-31 104zm68-16q0-89 56-89 48 0 81 73 39 85 39 186 0 89-55 89-49 0-82-73-39-86-39-186z"/><glyph glyph-name="ampersand" unicode="&" horiz-adv-x="704" d="M20 152q0 127 172 214-55 78-55 133 0 77 61 131t154 54q67 0 106.5-36.5t39.5-94.5q0-63-52-112.5t-152-80.5l149-198q37 33 87 130l-12 16-49 10v42h196v-42l-71-9q-64-121-126-181 58-87 152-87h11v-40l-71-4q-12-1-25-1-36 0-62 17.5t-62 60.5q-101-85-220-85-76 0-123.5 46t-47.5 117zm90 30q0-58 37-96t94-38q75 0 146 57l-172 230q-54-34-79.5-70t-25.5-83zm102 342q0-60 59-137 145 52 145 159 0 43-23.5 68t-61.5 25q-51 0-85-33t-34-82z"/><glyph glyph-name="quotesingle" unicode="'" horiz-adv-x="170" d="M44 664q0 50 41 50 42 0 42-49 0-4-2-20l-32-223h-16l-32 223q-1 7-1 19z"/><glyph glyph-name="parenleft" unicode="(" horiz-adv-x="419" d="M79 137q0 135 59 300 40 110 129 192 87 81 192 89l-8-42q-83-13-141-78-63-71-94-173-55-183-55-304 0-199 141-221l-8-42q-96 8-155.5 84t-59.5 195z"/><glyph glyph-name="parenright" unicode=")" horiz-adv-x="419" d="M-66-142l8 42q82 11 141 78 68 75 100 193 48 176 48 290 0 94-36.5 149.5t-103.5 65.5l8 42q96-8 155-83.5t59-189.5q0-158-49-287t-138-211q-91-83-192-89z"/><glyph glyph-name="asterisk" unicode="*" horiz-adv-x="500" d="M99 571l73 18 95-70-6-12-128 8zm32-233l17 72 116 81 9-7-70-121zm141 319l51 61 28-61-56-125h-14zm11-173l12 7 84-81-10-72-62 26zm21 36l122 69 66-18-56-56-130-8z"/><glyph glyph-name="plus" unicode="+" horiz-adv-x="833" d="M124 270v57h264v269h58v-269h263v-57h-263v-270h-58v270h-264z"/><glyph glyph-name="comma" unicode="," horiz-adv-x="278" d="M-57-169l6 33q120 23 137 143h-64q-9 13-9 29 0 30 20.5 50t50.5 20q31 0 47.5-18t16.5-50q0-72-58-134t-147-73z"/><glyph glyph-name="hyphen" unicode="-" horiz-adv-x="319" d="M23 207l13 67h224l-13-67h-224z"/><glyph glyph-name="period" unicode="." horiz-adv-x="278" d="M26 54q0 25 17 42.5t42 17.5 42.5-17.5 17.5-42.5-17.5-42-42.5-17q-24 0-41.5 17t-17.5 42z"/><glyph glyph-name="slash" unicode="/" horiz-adv-x="481" d="M-111-93l575 764h61l-575-764h-61z"/><glyph glyph-name="zero" unicode="0" d="M27 213q0 177 84 319 90 151 233 151 85 0 134.5-59.5t49.5-165.5q0-177-84-318-91-152-233-152-85 0-134.5 60t-49.5 165zm92-17q0-160 103-160 86 0 146 125 29 62 52 175 16 81 16 140 0 160-101 160-88 0-148-126-30-64-52-174-16-80-16-140z"/><glyph glyph-name="one" unicode="1" d="M82 0v43l104 6 16 17 100 519-10 10-145-19v41l233 66h24l-119-621 9-15 87-5v-42h-299z"/><glyph glyph-name="two" unicode="2" d="M-22 0l12 63 129 91 104 80q55 44 86 76t59 69 39.5 72 11.5 72q0 52-28.5 80.5t-80.5 28.5q-44 0-94-24l-20-107q-24-15-48-15-21 0-34 11t-13 29q0 44 43 84 80 73 198 73 84 0 129.5-39.5t45.5-110.5q0-43-19-85t-50-81.5-88-88.5q-56-48-116-92l-152-107h301l34 85h45l-31-164h-463z"/><glyph glyph-name="three" unicode="3" d="M1 97q0 26 15 41t40 15q17 0 35-7l15-86q39-24 84-24 80 0 133.5 51.5t53.5 127.5q0 51-32 80t-90 29q-16 0-60-4l8 56q9-1 25-1 84 0 135.5 44.5t51.5 109.5q0 49-30 78t-82 29q-48 0-95-32l-14-96q-34-12-47-12-19 0-31.5 13t-12.5 34q0 52 69.5 96t168.5 44q80 0 125.5-37t45.5-100q0-65-50.5-115.5t-142.5-73.5q73-3 113-37.5t40-92.5q0-51-28-99.5t-79-83.5q-82-55-186-55-78 0-128 31t-50 77z"/><glyph glyph-name="four" unicode="4" d="M0 194l12 65 421 418h59l-80-418h112l-13-65h-112l-44-231h-77l44 231h-322zm87 65h248l59 309z"/><glyph glyph-name="five" unicode="5" d="M3 79q0 25 16.5 41.5t41.5 16.5q11 0 25-3l26-85q33-15 73-15 79 0 135.5 56t56.5 133q0 129-178 129-13 0-96-6l66 325h350l-14-76h-291l-41-204q63 17 112 17 86 0 134-43t48-118q0-50-25-100t-70-87q-88-73-210-73-75 0-117 25.5t-42 66.5z"/><glyph glyph-name="six" unicode="6" d="M32 217q0 108 44 205.5t127 172.5q109 98 285 121l2-51q-128-13-216.5-86.5t-119.5-191.5q85 63 172 63 79 0 127-49t48-133q0-115-79-197.5t-193-82.5q-90 0-143.5 61t-53.5 168zm90-9q0-83 31-128.5t86-45.5q71 0 121.5 61t50.5 152q0 143-128 143-77 0-142-54-19-58-19-128z"/><glyph glyph-name="seven" unicode="7" d="M45-37l447 632h-309l-33-91h-47l32 167h461l-8-40-456-646-4-22h-83z"/><glyph glyph-name="eight" unicode="8" d="M18 141q0 64 43.5 117.5t126.5 91.5q-83 42-83 127 0 87 69 147t172 60q79 0 125-39t46-104q0-62-39-110.5t-113-77.5q68-33 97.5-66t29.5-82q0-91-76.5-156.5t-192.5-65.5q-96 0-150.5 43.5t-54.5 114.5zm84 18q0-58 38-92.5t100-34.5q70 0 116 43t46 105q0 20-7.5 36t-16.5 27-34 25.5-42 22.5l-58 27q-15 7-22 10-62-35-91-75t-29-94zm87 340q0-41 32-70.5t104-59.5q53 25 83 69.5t30 96.5q0 49-28.5 77t-78.5 28q-59 0-100.5-40t-41.5-101z"/><glyph glyph-name="nine" unicode="9" d="M28-14q254 93 363 294-99-55-171-55-77 0-125.5 49.5t-48.5 130.5q0 60 26.5 116.5t73.5 96.5q79 65 178 65 95 0 146.5-53.5t51.5-152.5q0-174-124.5-316t-351.5-217zm110 439q0-67 34.5-105.5t93.5-38.5q76 0 147 63 19 79 19 135 0 78-32.5 119t-91.5 41q-68 0-119-63t-51-151z"/><glyph glyph-name="colon" unicode=":" horiz-adv-x="319" d="M47 54q0 25 17 42.5t42 17.5 42.5-17.5 17.5-42.5-17.5-42-42.5-17q-24 0-41.5 17t-17.5 42zm69 364q0 25 17 42t42 17 42-17 17-42-17-42.5-42-17.5q-24 0-41.5 17.5t-17.5 42.5z"/><glyph glyph-name="semicolon" unicode=";" horiz-adv-x="319" d="M-32-169l6 33q120 23 137 143h-64q-9 13-9 29 0 30 20.5 50t50.5 20q31 0 47.5-18t16.5-50q0-72-58-134t-147-73zm148 587q0 25 17 42t42 17 42-17 17-42-17-42.5-42-17.5q-24 0-41.5 17.5t-17.5 42.5z"/><glyph glyph-name="less" unicode="<" horiz-adv-x="833" d="M129 273v50l575 236v-62l-488-199 488-198v-63z"/><glyph glyph-name="equal" unicode="=" horiz-adv-x="833" d="M124 176v57h585v-57h-585zm0 187v57h585v-57h-585z"/><glyph glyph-name="greater" unicode=">" horiz-adv-x="833" d="M129 37v63l488 198-488 199v62l575-236v-50z"/><glyph glyph-name="question" unicode="?" horiz-adv-x="486" d="M94 48q0 23 17 40t40 17q24 0 40.5-17t16.5-40q0-24-16.5-40.5t-40.5-16.5q-23 0-40 16.5t-17 40.5zm9 528q0 44 47 75.5t119 31.5q83 0 129.5-38t46.5-105q0-163-227-252l-23-117h-52l28 146q89 31 135.5 87t46.5 128q0 105-118 105h-3l-60-99q-6-1-18-1-51 0-51 39z"/><glyph glyph-name="at" unicode="@" horiz-adv-x="942" d="M76 246q0 199 145 332 59 54 140 84t167 30q158 0 250.5-87.5t92.5-231.5q0-111-56-197-37-56-89-88t-101-32q-74 0-74 76v9q-82-85-147-85-54 0-89 44.5t-35 116.5q0 95 56 171 36 49 87.5 76.5t105.5 27.5q47 0 98-27l18 23h54q-10-24-27-107l-39-172q-8-35-8-55 0-19 11.5-31t30.5-12q45 0 88 52 70 83 70 214 0 118-78.5 195t-204.5 77q-163 0-271-100-124-115-124-291 0-164 98-263t259-99q138 0 263 73l14-34q-158-88-304-88-171 0-289 113-112 107-112 286zm289-17q0-111 83-111 52 0 105 66l41 210-41 56q-14 2-22 2-70 0-118-63.5t-48-159.5z"/><glyph glyph-name="A" unicode="A" horiz-adv-x="606" d="M-79 0v38l55 6 369 633h66l107-616 17-18 49-5v-38h-219v38l59 5 7 14-31 191h-243l-107-191 8-14 61-5v-38h-198zm261 291h209l-46 288z"/><glyph glyph-name="B" unicode="B" horiz-adv-x="588" d="M-28 0v38l63 6 17 14 106 555-10 15-64 5v38h257q102 0 152-30t50-95q0-71-45-119.5t-132-70.5q158-8 158-133 0-223-302-223h-250zm165 44q35-3 66-3 223 0 223 175 0 58-38.5 84.5t-119.5 26.5q-22 0-77-5zm62 325q33-3 51-3 90 0 142 46.5t52 123.5q0 96-142 96-19 0-55-3z"/><glyph glyph-name="C" unicode="C" horiz-adv-x="604" d="M41 265q0 97 40.5 184t114.5 148q106 86 245 86 85 0 181-34l-28-154h-42v96l-8 19q-49 26-106 26-101 0-177-68-59-53-92-135.5t-33-179.5q0-104 54.5-161t153.5-57q41 0 86 14l19 17 44 115h43l-27-158q-105-35-199-35-124 0-196.5 75t-72.5 202z"/><glyph glyph-name="D" unicode="D" horiz-adv-x="671" d="M-28 0v38l64 6 16 14 107 555-10 15-65 5v38h227q153 0 232.5-65.5t79.5-189.5q0-88-32.5-167t-91.5-138q-112-111-316-111h-211zm168 47h55q165 0 245 105 39 51 62.5 124.5t23.5 149.5q0 101-55 150t-168 49h-54z"/><glyph glyph-name="E" unicode="E" horiz-adv-x="546" d="M-24 0v38l63 6 17 14 107 555-11 15-64 5v38h465l-28-146h-48v85l-11 15h-215l-49-253h152l18 14 22 73h43l-42-220h-41l4 72-12 14h-153l-54-279h255l18 16 34 101h46l-32-163h-484z"/><glyph glyph-name="F" unicode="F" horiz-adv-x="509" d="M-26 0v38l63 5 16 14 107 556-10 14-64 6v38h454l-31-157h-48v95l-10 16h-202l-50-264h141l18 15 23 72h44l-43-220h-43l4 72-12 15h-141l-49-255 14-15 70-5v-40h-251z"/><glyph glyph-name="G" unicode="G" horiz-adv-x="664" d="M39 266q0 97 42.5 183.5t119.5 146.5q114 88 258 88 103 0 180-30l-29-159h-53l3 94-9 21q-50 25-101 25-101 0-183-70-62-52-96.5-134t-34.5-179q0-96 55.5-155.5t144.5-59.5q38 0 105 14l38 213-10 14-65 5v39h246v-39l-64-5-16-14-47-241q-124-35-211-35-124 0-198.5 76.5t-74.5 201.5z"/><glyph glyph-name="H" unicode="H" horiz-adv-x="712" d="M-28 0v38l64 6 16 14 107 555-10 15-65 5v38h244v-38l-66-5-15-15-47-239h326l47 239-12 15-64 5v38h244v-38l-66-5-16-15-106-555 10-14 64-6v-38h-242v38l65 6 15 14 51 270h-325l-52-270 12-14 64-6v-38h-243z"/><glyph glyph-name="I" unicode="I" horiz-adv-x="312" d="M-23 0v38l64 6 16 14 107 555-11 15-64 5v38h244v-38l-66-5-16-15-107-555 12-14 65-6v-38h-244z"/><glyph glyph-name="J" unicode="J" horiz-adv-x="447" d="M-42 12l33 168h50v-127l12-13q19-4 35-4 65 0 93.5 48t51.5 168l70 361-11 15-64 5v38h243v-38l-65-5-16-15-67-357q-27-145-79-206.5t-163-61.5q-72 0-123 24z"/><glyph glyph-name="K" unicode="K" horiz-adv-x="625" d="M-30 0v38l64 6 16 14 107 555-11 15-64 5v38h243v-38l-65-5-16-15-54-273h29l275 271-6 16-70 5v39h242v-40l-83-6-263-257 142-276q16-32 35-43t63-11h20v-38q-61-4-90-4-52 0-72.5 13.5t-43.5 59.5l-116 229h-70l-46-240 13-14 65-6v-38h-244z"/><glyph glyph-name="L" unicode="L" horiz-adv-x="498" d="M-28 0v38l64 5 16 15 107 555-10 15-65 5v38h243v-38l-65-5-16-15-110-567h212l18 16 39 120h48l-35-182h-446z"/><glyph glyph-name="M" unicode="M" horiz-adv-x="839" d="M-27 0v38l63 6 16 14 106 555-11 15-63 5v38h204v-27l91-509 280 505v31h208v-38l-63-5-16-15-106-555 10-14 64-6v-38h-237v38l72 6 10 14 107 561-345-619h-44l-108 616-104-558 15-14 59-6v-38h-208z"/><glyph glyph-name="N" unicode="N" horiz-adv-x="683" d="M-31 0v38l64 6 16 14 107 555-10 15-65 5v38h172v-25l239-507 92 474-10 15-64 5v38h210v-38l-64-5-16-15-117-613h-58l-263 556-97-498 11-14 64-6v-38h-211z"/><glyph glyph-name="O" unicode="O" horiz-adv-x="708" d="M41 259q0 159 94 282 51 67 122 104t148 37q94 0 157-46 107-79 107-216 0-171-92-291-52-67-123-104t-149-37q-116 0-190 76t-74 195zm96-6q0-100 47.5-158.5t125.5-58.5q105 0 182 113 79 117 79 270 0 101-47 159t-126 58q-105 0-182-113-79-116-79-270z"/><glyph glyph-name="P" unicode="P" horiz-adv-x="542" d="M-28 0v38l64 6 16 14 107 555-11 15-64 5v38h213q100 0 150-18 44-16 70-54t26-86q0-116-83-188.5t-222-72.5q-8 0-62 2l-38-196 7-14 64-6v-38h-237zm213 301q28-2 41-2 107 0 165.5 52.5t58.5 145.5q0 68-39 99.5t-122 31.5q-13 0-41-2z"/><glyph glyph-name="Q" unicode="Q" horiz-adv-x="708" d="M40 258q0 158 95 283 52 67 123 104t149 37q91 0 155-47 50-37 78.5-93.5t28.5-122.5q0-134-58-238.5t-163-161.5q37-71 66-98t80-27q43 0 106 26v-34q-97-46-160-46-62 0-103.5 36t-76.5 116q-31-4-58-4-112 0-187 76.5t-75 193.5zm96-5q0-98 48-157.5t126-59.5q105 0 182 113 79 117 79 270 0 101-46.5 159t-125.5 58q-105 0-183-113-37-54-58.5-126t-21.5-144z"/><glyph glyph-name="R" unicode="R" horiz-adv-x="602" d="M-29 0v38l64 5 16 14 107 556-11 14-71 6v38h253q108 0 159.5-35t51.5-111q0-77-52-132t-147-76q16-4 29.5-10t23.5-12q10-7 18-19l13-19q5-7 11.5-26t9-27 9-32 9.5-33q16-59 38.5-80t78.5-21h9v-37q-46-6-70-6-62 0-92 25-22 19-33.5 49.5t-23.5 85.5l-3 15q-15 68-28 87-15 22-42 34-16 8-58 8-13 0-55-2l-47-240 12-14 65-5v-38h-244zm223 345q13-1 37-1 103 0 158.5 44t55.5 122q0 60-38 88t-117 28q-12 0-42-2z"/><glyph glyph-name="S" unicode="S" horiz-adv-x="537" d="M9 34l33 159h52l-10-115 10-13q58-29 111-29 78 0 124.5 40t46.5 106q0 9-1.5 18t-3.5 15.5-7 13.5-7.5 11-11.5 10.5-12 9.5-15 9l-16 8q-4 1-18 9l-18 10q-91 47-130 82.5t-39 91.5q0 91 68.5 151.5t178.5 60.5q89 0 167-29l-32-152h-44l4 99-12 18q-42 19-87 19-69 0-113.5-39t-44.5-95q0-33 17-57t35.5-34.5 69.5-34.5l10-5q80-38 115-74t35-96q0-92-76-153t-195-61q-101 0-184 46z"/><glyph glyph-name="T" unicode="T" horiz-adv-x="565" d="M43 522l29 149h538l-30-149h-54l4 93-11 15h-142l-110-572 13-14 65-6v-38h-244v38l64 6 16 14 107 572h-141l-17-15-32-93h-55z"/><glyph glyph-name="U" unicode="U" horiz-adv-x="664" d="M64 152q0 26 12 88l72 373-11 15-64 5v38h243v-38l-65-5-16-15-71-364q-9-47-9-75 0-60 36.5-92t105.5-32q91 0 137.5 47.5t66.5 151.5l71 364-12 15-65 5v38h209v-38l-63-5-17-15-73-373q-9-44-14.5-66t-21-54-38.5-56q-73-75-208-75-100 0-152.5 42t-52.5 121z"/><glyph glyph-name="V" unicode="V" horiz-adv-x="590" d="M31 633v38h209v-38l-56-5-7-15 79-521 271 521-8 15-58 5v38h188v-38l-53-6-343-632h-62l-97 615-16 18z"/><glyph glyph-name="W" unicode="W" horiz-adv-x="898" d="M51 633v38h214v-38l-57-5-7-15 37-471 248 529h65l56-536 219 478-8 15-59 5v38h192v-38l-58-6-293-627h-57l-59 549-255-549h-63l-50 610-17 18z"/><glyph glyph-name="X" unicode="X" horiz-adv-x="569" d="M-83 0v38l65 6 17 14 249 282-120 273-10 15-64 5v38h243v-38l-66-5-15-15 89-207 182 207-6 15-57 5v38h208v-38l-70-5-234-268 132-302 10-14 64-6v-38h-242v38l65 6 16 14-98 230-206-230 10-14 65-6v-38h-227z"/><glyph glyph-name="Y" unicode="Y" horiz-adv-x="562" d="M31 633v38h243v-38l-65-5-16-15 90-283 209 283-10 15-64 5v38h224v-38l-66-5-16-15-254-332-44-223 13-14 65-6v-38h-243v38l63 6 16 14 42 214-112 341-10 15z"/><glyph glyph-name="Z" unicode="Z" d="M-25 0l7 41 472 582h-248l-22-13-34-94h-52l30 155h444l-9-42-473-580h286l14 13 40 119h49l-34-181h-470z"/><glyph glyph-name="bracketleft" unicode="[" horiz-adv-x="421" d="M49-133l161 841h237l-8-43h-158l-145-755h158l-8-43h-237z"/><glyph glyph-name="backslash" unicode="\" horiz-adv-x="481" d="M35 671h57l396-764h-56z"/><glyph glyph-name="bracketright" unicode="]" horiz-adv-x="421" d="M-44-133l8 43h158l145 755h-158l8 43h237l-161-841h-237z"/><glyph glyph-name="asciicircum" unicode="^" horiz-adv-x="1000" d="M201 438l255 276h87l254-276h-45l-253 213-254-213h-44z"/><glyph glyph-name="underscore" unicode="_" horiz-adv-x="500" d="M0-178h500v-58h-500v58z"/><glyph glyph-name="grave" unicode="`" horiz-adv-x="500" d="M181 736h99l60-190h-50z"/><glyph glyph-name="a" unicode="a" horiz-adv-x="525" d="M17 166q0 99 52 185 80 131 231 131 45 0 90-22l20 22h52q-16-33-38-143l-36-177q-10-47-10-70 0-46 54-46 11 0 56 10v-30q-84-35-123-35-61 0-61 76v8q-80-84-149-84-64 0-101 46.5t-37 128.5zm83 6q0-120 87-120 57 0 118 66l52 264-40 61h-14q-88 0-145.5-76t-57.5-195z"/><glyph glyph-name="b" unicode="b" horiz-adv-x="507" d="M25 35l117 630-87 16v25l152 30h33q-15-47-23-92l-43-235q88 75 148 75 57 0 93.5-47t36.5-123q0-133-78-228t-197-95q-82 0-152 44zm85 37q40-40 89-40 64 0 115 77 56 84 56 192 0 57-23 89.5t-60 32.5q-43 0-120-53z"/><glyph glyph-name="c" unicode="c" horiz-adv-x="394" d="M15 172q0 135 83 226 79 87 179 87 40 0 66.5-20.5t26.5-49.5q0-23-17.5-38.5t-45.5-16.5l-58 76h-5q-62 0-106-70.5t-44-179.5q0-65 26.5-100.5t73.5-35.5q75 0 156 83v-46q-93-97-187-97-67 0-107.5 49t-40.5 133z"/><glyph glyph-name="d" unicode="d" horiz-adv-x="523" d="M21 170q0 103 49 181 40 63 101 99t124 36q42 0 80-17l35 200-88 10v28l153 29h26l-107-599q-6-33-6-54 0-42 44-42 18 0 65 11v-30q-80-29-123-29-67 0-67 71 0 13 1 20-74-93-156-93-61 0-96 47t-35 132zm81 1q0-58 23-90.5t63-32.5q61 0 128 85l45 254-48 57q-3 0-11.5 1.5t-12.5 1.5q-72 0-129.5-78t-57.5-198z"/><glyph glyph-name="e" unicode="e" horiz-adv-x="424" d="M21 173q0 133 89 227 37 39 82 60.5t83 21.5q47 0 75-27t28-72q0-65-71-108.5t-202-52.5q-3-21-3-46 0-61 28-95.5t76-34.5q72 0 160 82v-47q-93-90-194-90-71 0-111 47.5t-40 134.5zm89 83q90 5 143 42.5t53 87.5q0 23-15 38.5t-37 15.5q-45 0-84-48t-60-136z"/><glyph glyph-name="f" unicode="f" horiz-adv-x="292" d="M-151-163q0 24 22 40l104-27q32 34 49.5 96t33.5 177l42 287-67-7 1 33 76 31q24 126 81 195.5t129 69.5q35 0 59-18t24-41q0-20-13-34t-36-18l-82 67q-57-37-90-233h141v-45h-149l-40-284q-22-154-75-229-80-113-156-113-24 0-39 14.5t-15 38.5z"/><glyph glyph-name="g" unicode="g" horiz-adv-x="481" d="M-31-85q0 47 32 79.5t101 59.5q-1 6-1 17 0 47 40 97-92 37-92 121 0 82 56.5 138t138.5 56q45 0 93-25h143v-43h-103q13-33 13-66 0-81-56.5-135t-135.5-54q-10 0-23 1-13-25-13-53v-6l159-72q78-36 78-99 0-57-70.5-103t-170.5-46q-87 0-138 36.5t-51 96.5zm78 20q0-48 37.5-79.5t97.5-31.5q63 0 101.5 26t38.5 61q0 39-56 64l-127 59q-92-21-92-99zm81 343q0-40 18-62t49-22q44 0 80 47.5t36 113.5q0 44-18 67.5t-50 23.5q-45 0-80-49.5t-35-118.5z"/><glyph glyph-name="h" unicode="h" horiz-adv-x="551" d="M23 0l137 670-94 8v25l157 33h31q-18-65-40-177l-33-171q118 95 192 95 39 0 61.5-21.5t22.5-58.5q0-27-14-90l-35-155q-10-45-10-65 0-50 51-50 21 0 56 9v-27q-78-31-120-31-73 0-73 61 0 22 7 53l43 185q10 41 10 64 0 64-54 64-57 0-148-82l-62-339h-85z"/><glyph glyph-name="i" unicode="i" horiz-adv-x="287" d="M33 424v26l148 32h26l-72-374q-3-16-3-25 0-39 48-39 28 0 74 15v-31q-84-35-141-35-64 0-64 66 0 19 6 52l59 298zm114 226q0 22 15.5 38t38.5 16q22 0 38-16t16-38-16-38-38-16q-23 0-38.5 15.5t-15.5 38.5z"/><glyph glyph-name="j" unicode="j" horiz-adv-x="269" d="M-128-163q0 24 22 40l103-27q24 26 40.5 71t23.5 82.5 20 119.5l45 295-101 12v23l152 29h36l-56-356q-8-53-14.5-83.5t-22.5-72-39-74.5q-79-112-156-112-24 0-38.5 14.5t-14.5 38.5zm269 810q0 23 15.5 38.5t38.5 15.5q22 0 38-16t16-38-16-38-38-16q-23 0-38.5 15.5t-15.5 38.5z"/><glyph glyph-name="k" unicode="k" horiz-adv-x="514" d="M25 0l135 674-92 5v28l157 29h28l-107-498 185 191q52 53 88 53 25 0 41-14.5t16-36.5q0-40-55-62l-36 39q-49-36-129-108 65-147 101-202t84-55q17 0 52 7v-28q-82-27-117-27-56 0-94 77l-85 172-57-52-32-192h-83z"/><glyph glyph-name="l" unicode="l" horiz-adv-x="275" d="M35 65q0 22 18 115l96 490-89 10v26l152 30h27q-10-52-12-65l-101-503q-11-55-11-81 0-47 55-47 23 0 71 16v-31q-81-34-133-34-73 0-73 74z"/><glyph glyph-name="m" unicode="m" horiz-adv-x="815" d="M32 0l83 408-82 16v26l148 32h25l-18-95q116 95 189 95 38 0 59-23.5t22-67.5q109 91 183 91 37 0 59.5-23t22.5-62q0-33-12-84l-34-155q-11-50-11-65 0-50 51-50 21 0 56 9v-27q-82-31-120-31-73 0-73 60 0 17 8 54l43 185q9 37 9 64 0 64-49 64-67 0-136-81l-65-340h-83l60 293q9 48 9 69 0 28-14.5 43.5t-40.5 15.5q-51 0-142-82l-63-339h-84z"/><glyph glyph-name="n" unicode="n" d="M32 0l83 409-82 15v25l148 33h25l-18-96q120 96 194 96 39 0 61.5-21.5t22.5-58.5q0-26-14-89l-34-155q-11-53-11-66 0-49 52-49 21 0 55 9v-28q-78-30-120-30-73 0-73 60 0 19 8 54l43 185q9 37 9 64 0 33-13 48t-41 15q-59 0-148-82l-62-338h-85z"/><glyph glyph-name="o" unicode="o" horiz-adv-x="502" d="M22 181q0 128 80 219 74 83 177 83 78 0 124-52.5t46-143.5q0-122-81-215-70-81-176-81-77 0-123.5 51.5t-46.5 138.5zm85-1q0-71 25.5-109.5t71.5-38.5q65 0 112.5 74.5t47.5 186.5q0 73-26 112t-72 39q-66 0-112.5-75t-46.5-189z"/><glyph glyph-name="p" unicode="p" horiz-adv-x="516" d="M-69-188l59 12 10 11 105 582-78 10v25l142 30h26l-12-61q86 61 151 61 60 0 93.5-45t33.5-129q0-129-85-223-38-42-88.5-65.5t-101.5-23.5q-37 0-77 19l-33-186 95-17v-30h-240v30zm188 255q45-27 86-27 66 0 112 61 26 35 43.5 91t17.5 114-24.5 91-65.5 33q-44 0-112-53z"/><glyph glyph-name="q" unicode="q" horiz-adv-x="512" d="M25 172q0 117 66 203 40 53 94 82.5t108 29.5q38 0 95-25l26 25h48q-9-38-11-48l-104-608 96-17v-32h-246v32l61 12 11 12 40 231q-79-75-149-75-62 0-98.5 47.5t-36.5 130.5zm81-5q0-54 25-84.5t68-30.5q55 0 117 60l48 271-50 61q-7 1-20 1-67 0-121-64-29-35-48-93.5t-19-120.5z"/><glyph glyph-name="r" unicode="r" horiz-adv-x="398" d="M28 0l83 409-82 15v25l148 33h20l-32-137q96 137 178 137 25 0 40.5-14.5t15.5-37.5q0-29-18.5-47t-48.5-18h-7l-26 54q-71-27-102-69t-44-115l-41-235h-84z"/><glyph glyph-name="s" unicode="s" horiz-adv-x="370" d="M-17 79q0 23 14.5 37t37.5 14q19 0 43-18l-18-50q24-35 72-35 43 0 67 22.5t24 62.5q0 26-16 45.5t-53 47.5-52 41-29 35.5-14 49.5q0 62 50 106.5t122 44.5q42 0 67.5-17.5t25.5-44.5q0-21-15.5-35.5t-42.5-15.5l-42 58q-14 10-31 10-30 0-50-19t-20-48q0-17 10.5-33t22.5-26.5 42-33.5l17-13q13-10 16.5-13t14.5-11.5 14-12 11-11 10-12.5 7-12.5 6.5-14 3-15 1.5-17.5q0-66-51-110t-132-44q-62 0-97.5 24t-35.5 64z"/><glyph glyph-name="t" unicode="t" horiz-adv-x="333" d="M44 84q0 30 8 67l54 271-62-5v30l73 32 50 100h46l-21-114h144v-43h-152l-52-267q-6-36-6-44 0-62 61-62 33 0 95 20v-32q-102-44-154-44-84 0-84 91z"/><glyph glyph-name="u" unicode="u" horiz-adv-x="553" d="M30 424v26l157 33 16-14-63-291q-11-53-11-74 0-26 15.5-40.5t42.5-14.5q62 0 142 63l75 361h81l-71-326q-10-50-10-68 0-16 14.5-27.5t37.5-11.5q18 0 56 11v-28q-85-31-128-31-60 0-60 64 0 12 1 19-99-83-181-83-45 0-71 25t-26 69q0 23 8 60l58 263z"/><glyph glyph-name="v" unicode="v" horiz-adv-x="454" d="M-8 426v25l101 33h2q40 0 55-25t21-90l26-274q115 147 153 247l-19 122q25 20 50 20 53 0 53-57 0-54-69.5-164.5t-204.5-262.5h-48q14 27 14 65 0 12-2 36l-25 234q-8 71-30 85z"/><glyph glyph-name="w" unicode="w" horiz-adv-x="713" d="M0 427v24l115 34 35-2 22-394q133 253 184 371l60 7q6-139 27-392 131 176 162 269l-20 117q19 23 51 23 25 0 38.5-15t13.5-42q0-53-61-151.5t-196-275.5h-58l-24 349q-45-98-191-349h-65l8 22-27 396z"/><glyph glyph-name="x" unicode="x" horiz-adv-x="477" d="M-47 46q0 42 49 51l46-43q35 19 72 67.5t67 119.5q-40 141-76 174l-83 11v24l101 35q2 0 5.5.5t5.5.5q38 0 55-34.5t43-138.5q5-19 8-29 99 201 191 201 24 0 40.5-16.5t16.5-39.5q0-36-49-56l-43 39q-68-18-134-171 37-129 52-156 22-42 61-42 15 0 53 11v-31q-72-29-112-29-48 0-68 39.5t-48 161.5q-49-103-95.5-153t-95.5-50q-28 0-45 15t-17 39z"/><glyph glyph-name="y" unicode="y" horiz-adv-x="475" d="M-113-151q0 21 15 36t39 19l59-59q45 3 87.5 46.5t87.5 129.5l-3-2-62 301q-13 69-40 104l-85 7v22l98 32q4 1 13 1 40 0 56.5-37.5t36.5-139.5q4-25 7-38l33-169 157 380h19l79-26v-21l-51-30q-42-47-106.5-186.5t-89.5-184.5q-138-251-266-251-36 0-60 19.5t-24 46.5z"/><glyph glyph-name="z" unicode="z" horiz-adv-x="440" d="M-14 19l344 386-99-22q-56 29-88 29-40 0-63-32l53-64q-18-32-47-32-21 0-34 16t-13 43q0 53 41.5 96.5t93.5 43.5q30 0 82-27 46-23 68-23 12 0 30 8l19 49 61-32-345-385 97 25q74-33 102-33 38 0 62 36l-55 61q21 36 48 36 21 0 35-16.5t14-43.5q0-53-42.5-96.5t-96.5-43.5q-30 0-81.5 21.5t-74.5 21.5q-15 0-32-9l-24-43z"/><glyph glyph-name="braceleft" unicode="{" horiz-adv-x="486" d="M65 268v44q9-1 26-1 67 0 93 29t26 100v102q0 85 46 123t149 38h13v-37q-74-2-101-27.5t-27-92.5v-81q0-81-28-120.5t-102-54.5q70-16 100.5-55t30.5-114v-83q0-79 22.5-105.5t104.5-27.5v-39h-25q-106 0-144 39t-38 144v85q0 74-27 104t-96 30h-23z"/><glyph glyph-name="bar" unicode="|" horiz-adv-x="500" d="M219-236v1000h62v-1000h-62z"/><glyph glyph-name="braceright" unicode="}" horiz-adv-x="486" d="M64-95q82 1 104.5 27.5t22.5 105.5v83q0 75 30.5 114t100.5 55q-74 15-102 54.5t-28 120.5v81q0 67-27 92.5t-101 27.5v37h13q103 0 149-38t46-123v-102q0-71 26-100t93-29q17 0 26 1v-44h-23q-69 0-96-30t-27-104v-85q0-105-38.5-144t-144.5-39h-24v39z"/><glyph glyph-name="asciitilde" unicode="~" horiz-adv-x="833" d="M87 225v65q103 71 189 71 52 0 142-32 5-2 19.5-7t21-7.5 19-6.5 20.5-6 19-4 21.5-3 20.5-1q79 0 188 76v-64q-98-70-189-70-42 0-93 17l-49 17q-34 12-50.5 17t-42.5 10.5-48 5.5q-77 0-188-78z"/><glyph glyph-name="uni00A0" horiz-adv-x="278"/><glyph glyph-name="exclamdown" unicode="¡" horiz-adv-x="338" d="M61 39q0 16 17 82l101 382h49l-45-382q-8-70-24-100t-54-30q-44 0-44 48zm102 587q0 24 17 40.5t41 16.5q23 0 39.5-17t16.5-40-16.5-40-39.5-17q-24 0-41 16.5t-17 40.5z"/><glyph glyph-name="cent" unicode="¢" d="M42 187q0 119 72.5 206.5t190.5 106.5l19 101h45l-19-99h19q74 0 122-22l-21-113h-53l5 71q-35 20-80 20l-79-412q49 0 88 19l22 74h53l-23-117q-61-21-126-21h-23l-19-99h-45l19 101q-80 13-123.5 61.5t-43.5 122.5zm85 7q0-57 24-95.5t67-50.5l78 406q-74-20-121.5-93t-47.5-167z"/><glyph glyph-name="sterling" unicode="£" d="M-21 0v57q77 16 110 70.5t53 177.5h-70v46h78q16 161 87 246t184 85q56 0 91-20.5t35-50.5q0-50-80-64l-45 87h-4q-79 0-120-66.5t-64-216.5h184v-46h-193q-26-165-144-232l1-2q49 5 69 5h297v-76h-469z"/><glyph glyph-name="currency" unicode="¤" horiz-adv-x="606" d="M42 207l101 100q-43 57-43 125t43 125l-101 100 35 36 101-101q58 44 125 44 69 0 127-44l100 101 35-36-100-100q42-55 42-125t-42-125l100-100-35-36-100 101q-55-43-127-43-70 0-125 43l-101-101zm109 226q0-64 44.5-109t108.5-45q63 0 108 45.5t45 108.5-44.5 108-108.5 45-108.5-45-44.5-108z"/><glyph glyph-name="yen" unicode="¥" d="M2 236v41h219l-34 103h-156v41h139l-62 193-52 10v40h215v-40l-61-6-11-11 87-270 201 262-6 14-48 11v40h183v-40l-60-12-145-191h137v-41h-173l-77-103h222v-41h-227l-33-177 14-14 67-5v-40h-255v40l73 5 21 14 33 177h-211z"/><glyph glyph-name="brokenbar" unicode="¦" horiz-adv-x="500" d="M219-171v370h62v-370h-62zm0 500v370h62v-370h-62z"/><glyph glyph-name="section" unicode="§" horiz-adv-x="500" d="M4-109l22 129h49l-3-90q43-26 90-26 51 0 86 29t35 67q0 13-3 23.5t-11 20-15 16-22.5 16-25.5 15-32.5 16.5-34.5 18q-89 47-89 135 0 58 39.5 106.5t112.5 76.5q-41 23-60 47.5t-19 59.5q0 75 60 121.5t163 46.5q63 0 129-23l-25-129h-44l4 80q-48 30-90 30-49 0-83.5-29t-34.5-67q0-15 4.5-26.5t19-23 24-17 37-19.5 41.5-22q55-30 80.5-63t25.5-79q0-54-42-106t-114-80q82-42 82-107 0-72-61.5-124.5t-154.5-52.5q-69 0-140 31zm125 398q0-42 26-68.5t91-58.5q109 63 109 143 0 73-115 119-111-46-111-135z"/><glyph glyph-name="dieresis" unicode="¨" horiz-adv-x="500" d="M163 641q0 21 14.5 36t35.5 15q22 0 37-15t15-36-15.5-36-36.5-15q-20 0-35 15t-15 36zm186 0q0 21 15 36t36 15q22 0 36.5-15t14.5-36-15-36-36-15q-20 0-35.5 15t-15.5 36z"/><glyph glyph-name="copyright" unicode="©" horiz-adv-x="900" d="M67 340q0 157 112 271 54 55 125.5 85t148.5 30q76 0 148-30.5t126-85.5q110-112 110-274 0-75-30.5-146t-87.5-127q-111-109-272-109-154 0-267 113t-113 273zm44 0q0-143 100-243 103-101 241-101 142 0 240 101 101 104 101 243 0 144-100 244-101 101-240 101-142 0-242-102-100-103-100-243zm110-2q0 105 68 170.5t179 65.5q68 0 141-23v-120h-43l-15 75q-37 22-78 22-71 0-118-53.5t-47-135.5 46-136.5 114-54.5q30 0 85 20l13 84h43v-125q-72-25-147-25-106 0-173.5 66t-67.5 170z"/><glyph glyph-name="ordfeminine" unicode="ª" horiz-adv-x="394" d="M13 448q0 70 39 130 60 91 173 91 32 0 68-15l15 15h39q-12-22-29-100l-27-124q-7-32-7-49 0-32 40-32 7 0 42 7v-21q-62-24-92-24-46 0-46 53v5q-59-58-112-58-48 0-75.5 32.5t-27.5 89.5zm62 4q0-84 65-84 42 0 89 47l39 184-30 43h-11q-66 0-109-53.5t-43-136.5z"/><glyph glyph-name="guillemotleft" unicode="«" horiz-adv-x="442" d="M13 200l15 80 190 133-13-66-138-107 97-108-13-65zm198 0l15 80 189 133-12-66-138-107 96-108-12-65z"/><glyph glyph-name="logicalnot" unicode="¬" horiz-adv-x="833" d="M124 362v57h585v-245h-56v188h-529z"/><glyph glyph-name="uni00AD" unicode="­" horiz-adv-x="319" d="M23 207l13 67h224l-13-67h-224z"/><glyph glyph-name="registered" unicode="®" horiz-adv-x="900" d="M67 340q0 157 112 271 54 55 125.5 85t148.5 30q76 0 148-30.5t126-85.5q110-112 110-274 0-75-30.5-146t-87.5-127q-111-109-272-109-154 0-267 113t-113 273zm44 0q0-143 100-243 103-101 241-101 142 0 240 101 101 104 101 243 0 144-100 244-101 101-240 101-142 0-242-102-100-103-100-243zm143 186v34h211q162 0 162-109 0-42-31-71t-90-42q46-7 72-39 10-12 16.5-27t11.5-32.5 8-24.5q13-32 33-43.5t64-11.5v-36q-42-8-62-8-46 0-79 29-14 12-23 30t-18 45-14 39q-15 33-36.5 45t-62.5 12q-18 0-29-1v-150l63-7v-37h-191v36l53 7v352zm133-171q9-1 25-1 128 0 128 83 0 42-32.5 64.5t-94.5 22.5q-8 0-26-2v-167z"/><glyph glyph-name="macron" unicode="¯" horiz-adv-x="500" d="M155 615l9 51h301l-9-51h-301z"/><glyph glyph-name="degree" unicode="°" horiz-adv-x="329" d="M27 572q0 58 40.5 98t97.5 40 97.5-40.5 40.5-97.5-40.5-97.5-98.5-40.5-97.5 40-39.5 98zm39 0q0-42 29-70.5t70-28.5q42 0 70 29t28 70-28.5 69.5-69.5 28.5-70-28.5-29-69.5z"/><glyph glyph-name="plusminus" unicode="±" horiz-adv-x="833" d="M124 20v57h585v-57h-585zm0 331v57h264v168h58v-168h263v-57h-263v-168h-58v168h-264z"/><glyph glyph-name="uni00B2" unicode="²" horiz-adv-x="367" d="M-15 268l8 38q158 100 221 156.5t63 119.5q0 31-19 48t-53 17q-29 0-62-14l-14-64q-15-9-31-9-31 0-31 24 0 26 28 50 54 44 131 44 55 0 85-24t30-66q0-61-64-119.5t-216-153.5h198l23 51h30l-21-98h-306z"/><glyph glyph-name="uni00B3" unicode="³" horiz-adv-x="367" d="M1 326q0 16 9.5 25t26.5 9q11 0 23-4l10-52q24-14 55-14 54 0 89 31t35 76q0 31-21 48t-60 17q-11 0-39-2l5 34q6-1 16-1 56 0 90 26.5t34 65.5q0 30-20 47.5t-54 17.5q-31 0-63-20l-9-57q-23-7-31-7-12 0-20.5 8t-8.5 20q0 31 46 57.5t111 26.5q53 0 83-22.5t30-59.5q0-39-33-69.5t-94-44.5q48-1 74.5-22t26.5-56q0-64-71-110-53-33-123-33-52 0-84.5 18.5t-32.5 46.5z"/><glyph glyph-name="acute" unicode="´" horiz-adv-x="500" d="M253 546l133 190h99l-183-190h-49z"/><glyph glyph-name="uni00B5" unicode="µ" horiz-adv-x="547" d="M-39-161q-1 17 11 60l34 123q22 80 38 159l53 251h72l-51-240q-6-30-6-55 0-40 20.5-62.5t57.5-22.5q97 0 126 131l54 249h73l-56-259q-10-48-10-67 0-24 12.5-38.5t32.5-14.5q35 0 57 34 7 11 13 26t9 25 7 17 10 7q13 0 13-18 0-29-20-73-36-80-112-80-33 0-53 24.5t-20 68.5v11q-45-106-137-106-95 0-109 105-10-51-17.5-106.5t-11-85.5-9.5-57-15.5-38-26.5-11q-18 0-28.5 11.5t-10.5 31.5z"/><glyph glyph-name="paragraph" unicode="¶" horiz-adv-x="484" d="M26 474q0 104 57 150.5t179 46.5h196v-36l-62-10v-704h-49v709h-76v-349h-18q-227 0-227 193z"/><glyph glyph-name="periodcentered" unicode="·" horiz-adv-x="278" d="M79 335q0 25 17 42.5t42 17.5 42.5-17.5 17.5-42.5-17.5-42-42.5-17q-24 0-41.5 17t-17.5 42z"/><glyph glyph-name="cedilla" unicode="¸" horiz-adv-x="500" d="M61-213l7 36q29-8 58-8 35 0 55 14t20 38q0 28-43 28-5 0-21-2l21 107h36l-12-61q9 1 21 1 63 0 63-56 0-45-38-76t-99-31q-34 0-68 10z"/><glyph glyph-name="uni00B9" unicode="¹" horiz-adv-x="367" d="M55 268v26l68 3 11 11 66 311-7 6-96-11v24l154 40h16l-78-373 6-9 57-3v-25h-197z"/><glyph glyph-name="ordmasculine" unicode="º" horiz-adv-x="377" d="M17 459q0 90 60 153 55 58 132 58 59 0 93.5-37t34.5-100q0-85-61-151-53-56-132-56-58 0-92.5 36t-34.5 97zm63-1q0-50 19.5-77t53.5-27q49 0 84.5 52.5t35.5 130.5q0 51-19.5 78.5t-53.5 27.5q-50 0-85-52.5t-35-132.5z"/><glyph glyph-name="guillemotright" unicode="»" horiz-adv-x="442" d="M-6 67l12 65 138 108-96 107 12 66 139-133-15-80zm197 0l13 65 138 108-97 107 13 66 138-133-15-80z"/><glyph glyph-name="onequarter" unicode="¼" horiz-adv-x="867" d="M51 295v24l66 3 10 10 63 291-7 5-91-10v23l147 36h15l-75-347 6-9 55-2v-24h-189zm73-295l557 671h61l-557-671h-61zm393 109l8 36 265 234h37l-50-234h70l-8-36h-71l-27-130h-49l28 130h-203zm55 36h156l37 173z"/><glyph glyph-name="onehalf" unicode="½" horiz-adv-x="867" d="M51 295v24l66 3 10 10 63 291-7 5-91-10v23l147 36h15l-75-347 6-9 55-2v-24h-189zm73-295l557 671h61l-557-671h-61zm379 0l8 35q149 93 209.5 146t60.5 112q0 29-18 45t-51 16q-26 0-59-14l-13-59q-15-9-30-9-29 0-29 23 0 24 27 47 50 40 124 40 53 0 82-22t29-62q0-56-61-110t-207-144h190l21 48h28l-19-92h-292z"/><glyph glyph-name="threequarters" unicode="¾" horiz-adv-x="868" d="M1 349q0 14 9 23t25 9q11 0 22-4l10-48q25-14 53-14 51 0 84.5 29t33.5 71q0 29-20 45t-57 16q-10 0-38-2l5 32q6-1 16-1 52 0 84.5 25t32.5 61q0 28-19 44t-51 16q-30 0-60-18l-9-54q-24-6-29-6-12 0-20 7t-8 19q0 29 43.5 53.5t106.5 24.5q51 0 79.5-20.5t28.5-55.5q0-37-32-65t-90-41q46-1 71-20.5t25-52.5q0-61-67-102-51-31-117-31-49 0-80.5 17.5t-31.5 42.5zm123-349l557 671h61l-557-671h-61zm393 109l8 36 265 234h37l-50-234h70l-8-36h-71l-27-130h-49l28 130h-203zm55 36h156l37 173z"/><glyph glyph-name="questiondown" unicode="¿" horiz-adv-x="486" d="M28 134q0 163 228 252l22 117h52l-28-146q-89-31-135.5-86.5t-46.5-128.5q0-105 118-105h3l60 99q7 1 18 1 51 0 51-39 0-44-46.5-75.5t-118.5-31.5q-83 0-130 38.5t-47 104.5zm237 492q0 24 17 40.5t40 16.5 40-17 17-40-17-40-40-17q-24 0-40.5 16.5t-16.5 40.5z"/><glyph glyph-name="Agrave" unicode="À" horiz-adv-x="606" d="M-79 0v38l55 6 369 633h66l107-616 17-18 49-5v-38h-219v38l59 5 7 14-31 191h-243l-107-191 8-14 61-5v-38h-198zm261 291h209l-46 288zm79 637h99l60-190h-50z"/><glyph glyph-name="Aacute" unicode="Á" horiz-adv-x="606" d="M-79 0v38l55 6 369 633h66l107-616 17-18 49-5v-38h-219v38l59 5 7 14-31 191h-243l-107-191 8-14 61-5v-38h-198zm261 291h209l-46 288zm151 447l133 190h99l-183-190h-49z"/><glyph glyph-name="Acircumflex" unicode="Â" horiz-adv-x="606" d="M-79 0v38l55 6 369 633h66l107-616 17-18 49-5v-38h-219v38l59 5 7 14-31 191h-243l-107-191 8-14 61-5v-38h-198zm261 291h209l-46 288zm46 447l146 190h65l74-190h-55l-61 141-114-141h-55z"/><glyph glyph-name="Atilde" unicode="Ã" horiz-adv-x="606" d="M-79 0v38l55 6 369 633h66l107-616 17-18 49-5v-38h-219v38l59 5 7 14-31 191h-243l-107-191 8-14 61-5v-38h-198zm261 291h209l-46 288zm41 474q18 120 108 120 29 0 72-26t58-26q41 0 51 67h42q-7-55-37-87.5t-69-32.5q-33 0-79 25t-56 25q-18 0-31.5-17.5t-15.5-47.5h-43z"/><glyph glyph-name="Adieresis" unicode="Ä" horiz-adv-x="606" d="M-79 0v38l55 6 369 633h66l107-616 17-18 49-5v-38h-219v38l59 5 7 14-31 191h-243l-107-191 8-14 61-5v-38h-198zm261 291h209l-46 288zm61 542q0 21 14.5 36t35.5 15q22 0 37-15t15-36-15.5-36-36.5-15q-20 0-35 15t-15 36zm186 0q0 21 15 36t36 15q22 0 36.5-15t14.5-36-15-36-36-15q-20 0-35.5 15t-15.5 36z"/><glyph glyph-name="Aring" unicode="Å" horiz-adv-x="606" d="M-79 0v38l55 6 369 633h66l107-616 17-18 49-5v-38h-219v38l59 5 7 14-31 191h-243l-107-191 8-14 61-5v-38h-198zm261 291h209l-46 288zm92 569q0 50 34.5 85t84.5 35 85-35 35-85-34.5-84.5-84.5-34.5-85 34.5-35 84.5zm45 0q0-31 22-52.5t53-21.5 53 21.5 22 52.5-21.5 52.5-53.5 21.5q-31 0-53-21.5t-22-52.5z"/><glyph glyph-name="AE" unicode="Æ" horiz-adv-x="873" d="M-115 0v38l61 13 456 559-6 15-58 6v40h541l-29-146h-47v85l-11 15h-215l-49-253h152l17 14 23 73h43l-43-220h-41l4 72-11 14h-153l-54-279h255l17 16 35 101h46l-32-163h-483v38l63 6 16 14 39 198h-241l-159-195 2-14 64-9v-38h-202zm333 303h212l64 338z"/><glyph glyph-name="Ccedilla" unicode="Ç" horiz-adv-x="604" d="M41 265q0 97 40.5 184t114.5 148q106 86 245 86 85 0 181-34l-28-154h-42v96l-8 19q-49 26-106 26-101 0-177-68-59-53-92-135.5t-33-179.5q0-104 54.5-161t153.5-57q41 0 86 14l19 17 44 115h43l-27-158q-105-35-199-35-124 0-196.5 75t-72.5 202zm140-478l7 36q29-8 58-8 35 0 55 14t20 38q0 28-43 28-5 0-21-2l21 107h36l-12-61q9 1 21 1 63 0 63-56 0-45-38-76t-99-31q-34 0-68 10z"/><glyph glyph-name="Egrave" unicode="È" horiz-adv-x="546" d="M-24 0v38l63 6 17 14 107 555-11 15-64 5v38h465l-28-146h-48v85l-11 15h-215l-49-253h152l18 14 22 73h43l-42-220h-41l4 72-12 14h-153l-54-279h255l18 16 34 101h46l-32-163h-484zm255 928h99l60-190h-50z"/><glyph glyph-name="Eacute" unicode="É" horiz-adv-x="546" d="M-24 0v38l63 6 17 14 107 555-11 15-64 5v38h465l-28-146h-48v85l-11 15h-215l-49-253h152l18 14 22 73h43l-42-220h-41l4 72-12 14h-153l-54-279h255l18 16 34 101h46l-32-163h-484zm327 738l133 190h99l-183-190h-49z"/><glyph glyph-name="Ecircumflex" unicode="Ê" horiz-adv-x="546" d="M-24 0v38l63 6 17 14 107 555-11 15-64 5v38h465l-28-146h-48v85l-11 15h-215l-49-253h152l18 14 22 73h43l-42-220h-41l4 72-12 14h-153l-54-279h255l18 16 34 101h46l-32-163h-484zm222 738l146 190h65l74-190h-55l-61 141-114-141h-55z"/><glyph glyph-name="Edieresis" unicode="Ë" horiz-adv-x="546" d="M-24 0v38l63 6 17 14 107 555-11 15-64 5v38h465l-28-146h-48v85l-11 15h-215l-49-253h152l18 14 22 73h43l-42-220h-41l4 72-12 14h-153l-54-279h255l18 16 34 101h46l-32-163h-484zm237 833q0 21 14.5 36t35.5 15q22 0 37-15t15-36-15.5-36-36.5-15q-20 0-35 15t-15 36zm186 0q0 21 15 36t36 15q22 0 36.5-15t14.5-36-15-36-36-15q-20 0-35.5 15t-15.5 36z"/><glyph glyph-name="Igrave" unicode="Ì" horiz-adv-x="312" d="M-23 0v38l64 6 16 14 107 555-11 15-64 5v38h244v-38l-66-5-16-15-107-555 12-14 65-6v-38h-244zm137 928h99l60-190h-50z"/><glyph glyph-name="Iacute" unicode="Í" horiz-adv-x="312" d="M-23 0v38l64 6 16 14 107 555-11 15-64 5v38h244v-38l-66-5-16-15-107-555 12-14 65-6v-38h-244zm209 738l133 190h99l-183-190h-49z"/><glyph glyph-name="Icircumflex" unicode="Î" horiz-adv-x="312" d="M-23 0v38l64 6 16 14 107 555-11 15-64 5v38h244v-38l-66-5-16-15-107-555 12-14 65-6v-38h-244zm104 738l146 190h65l74-190h-55l-61 141-114-141h-55z"/><glyph glyph-name="Idieresis" unicode="Ï" horiz-adv-x="312" d="M-23 0v38l64 6 16 14 107 555-11 15-64 5v38h244v-38l-66-5-16-15-107-555 12-14 65-6v-38h-244zm119 833q0 21 15 36t35 15q22 0 37-15t15-36-15.5-36-36.5-15q-20 0-35 15t-15 36zm186 0q0 21 15 36t36 15q22 0 36.5-15t14.5-36-15-36-36-15q-20 0-35.5 15t-15.5 36z"/><glyph glyph-name="Eth" unicode="Ð" horiz-adv-x="671" d="M-28 0v38l64 6 16 14 53 273h-86l5 46h90l45 236-10 15-64 5v38h227q153 0 232-65.5t79-189.5q0-88-32-167.5t-91-137.5q-112-111-317-111h-211zm168 47h55q166 0 246 105 39 51 62 124t23 150q0 101-54.5 150t-167.5 49h-55l-47-248h150l-9-46h-151z"/><glyph glyph-name="Ntilde" unicode="Ñ" horiz-adv-x="683" d="M-31 0v38l64 6 16 14 107 555-10 15-65 5v38h172v-25l239-507 92 474-10 15-64 5v38h210v-38l-64-5-16-15-117-613h-58l-263 556-97-498 11-14 64-6v-38h-211zm292 765q18 120 108 120 29 0 72-26t58-26q41 0 51 67h42q-7-55-37-87.5t-69-32.5q-33 0-79 25t-56 25q-18 0-31.5-17.5t-15.5-47.5h-43z"/><glyph glyph-name="Ograve" unicode="Ò" horiz-adv-x="708" d="M41 259q0 159 94 282 51 67 122 104t148 37q94 0 157-46 107-79 107-216 0-171-92-291-52-67-123-104t-149-37q-116 0-190 76t-74 195zm96-6q0-100 47.5-158.5t125.5-58.5q105 0 182 113 79 117 79 270 0 101-47 159t-126 58q-105 0-182-113-79-116-79-270zm175 675h99l60-190h-50z"/><glyph glyph-name="Oacute" unicode="Ó" horiz-adv-x="708" d="M41 259q0 159 94 282 51 67 122 104t148 37q94 0 157-46 107-79 107-216 0-171-92-291-52-67-123-104t-149-37q-116 0-190 76t-74 195zm96-6q0-100 47.5-158.5t125.5-58.5q105 0 182 113 79 117 79 270 0 101-47 159t-126 58q-105 0-182-113-79-116-79-270zm247 485l133 190h99l-183-190h-49z"/><glyph glyph-name="Ocircumflex" unicode="Ô" horiz-adv-x="708" d="M41 259q0 159 94 282 51 67 122 104t148 37q94 0 157-46 107-79 107-216 0-171-92-291-52-67-123-104t-149-37q-116 0-190 76t-74 195zm96-6q0-100 47.5-158.5t125.5-58.5q105 0 182 113 79 117 79 270 0 101-47 159t-126 58q-105 0-182-113-79-116-79-270zm142 485l146 190h65l74-190h-55l-61 141-114-141h-55z"/><glyph glyph-name="Otilde" unicode="Õ" horiz-adv-x="708" d="M41 259q0 159 94 282 51 67 122 104t148 37q94 0 157-46 107-79 107-216 0-171-92-291-52-67-123-104t-149-37q-116 0-190 76t-74 195zm96-6q0-100 47.5-158.5t125.5-58.5q105 0 182 113 79 117 79 270 0 101-47 159t-126 58q-105 0-182-113-79-116-79-270zm137 512q18 120 108 120 29 0 72-26t58-26q41 0 51 67h42q-7-55-37-87.5t-69-32.5q-33 0-79 25t-56 25q-18 0-31.5-17.5t-15.5-47.5h-43z"/><glyph glyph-name="Odieresis" unicode="Ö" horiz-adv-x="708" d="M41 259q0 159 94 282 51 67 122 104t148 37q94 0 157-46 107-79 107-216 0-171-92-291-52-67-123-104t-149-37q-116 0-190 76t-74 195zm96-6q0-100 47.5-158.5t125.5-58.5q105 0 182 113 79 117 79 270 0 101-47 159t-126 58q-105 0-182-113-79-116-79-270zm157 580q0 21 15 36t35 15q22 0 37-15t15-36-15.5-36-36.5-15q-20 0-35 15t-15 36zm186 0q0 21 15 36t36 15q22 0 36.5-15t14.5-36-15-36-36-15q-20 0-35.5 15t-15.5 36z"/><glyph glyph-name="multiply" unicode="×" horiz-adv-x="833" d="M147 66l232 232-232 233 39 40 233-233 232 233 40-40-232-233 232-232-40-40-232 232-233-232z"/><glyph glyph-name="Oslash" unicode="Ø" horiz-adv-x="708" d="M42 263q0 156 93 278 52 68 123.5 104.5t150.5 36.5q65 0 115-25l55 86 37-23-55-84q108-82 108-216 0-171-92-291-52-68-122.5-104.5t-148.5-36.5q-76 0-144 37l-64-99-32 24 64 99q-88 73-88 214zm89-6q0-82 37-147l325 500q-43 26-94 26-112 0-189-112-37-53-58-124.5t-21-142.5zm67-178q50-46 116-46 107 0 184 113 79 117 79 268 0 106-52 168z"/><glyph glyph-name="Ugrave" unicode="Ù" horiz-adv-x="664" d="M64 152q0 26 12 88l72 373-11 15-64 5v38h243v-38l-65-5-16-15-71-364q-9-47-9-75 0-60 36.5-92t105.5-32q91 0 137.5 47.5t66.5 151.5l71 364-12 15-65 5v38h209v-38l-63-5-17-15-73-373q-9-44-14.5-66t-21-54-38.5-56q-73-75-208-75-100 0-152.5 42t-52.5 121zm226 776h99l60-190h-50z"/><glyph glyph-name="Uacute" unicode="Ú" horiz-adv-x="664" d="M64 152q0 26 12 88l72 373-11 15-64 5v38h243v-38l-65-5-16-15-71-364q-9-47-9-75 0-60 36.5-92t105.5-32q91 0 137.5 47.5t66.5 151.5l71 364-12 15-65 5v38h209v-38l-63-5-17-15-73-373q-9-44-14.5-66t-21-54-38.5-56q-73-75-208-75-100 0-152.5 42t-52.5 121zm298 586l133 190h99l-183-190h-49z"/><glyph glyph-name="Ucircumflex" unicode="Û" horiz-adv-x="664" d="M64 152q0 26 12 88l72 373-11 15-64 5v38h243v-38l-65-5-16-15-71-364q-9-47-9-75 0-60 36.5-92t105.5-32q91 0 137.5 47.5t66.5 151.5l71 364-12 15-65 5v38h209v-38l-63-5-17-15-73-373q-9-44-14.5-66t-21-54-38.5-56q-73-75-208-75-100 0-152.5 42t-52.5 121zm193 586l146 190h65l74-190h-55l-61 141-114-141h-55z"/><glyph glyph-name="Udieresis" unicode="Ü" horiz-adv-x="664" d="M64 152q0 26 12 88l72 373-11 15-64 5v38h243v-38l-65-5-16-15-71-364q-9-47-9-75 0-60 36.5-92t105.5-32q91 0 137.5 47.5t66.5 151.5l71 364-12 15-65 5v38h209v-38l-63-5-17-15-73-373q-9-44-14.5-66t-21-54-38.5-56q-73-75-208-75-100 0-152.5 42t-52.5 121zm208 681q0 21 15 36t35 15q22 0 37-15t15-36-15.5-36-36.5-15q-20 0-35 15t-15 36zm186 0q0 21 15 36t36 15q22 0 36.5-15t14.5-36-15-36-36-15q-20 0-35.5 15t-15.5 36z"/><glyph glyph-name="Yacute" unicode="Ý" horiz-adv-x="562" d="M31 633v38h243v-38l-65-5-16-15 90-283 209 283-10 15-64 5v38h224v-38l-66-5-16-15-254-332-44-223 13-14 65-6v-38h-243v38l63 6 16 14 42 214-112 341-10 15zm280 105l133 190h99l-183-190h-49z"/><glyph glyph-name="Thorn" unicode="Þ" horiz-adv-x="532" d="M-29 0v38l63 6 16 14 108 556-12 14-63 5v38h243v-38l-65-5-16-14-13-69h39q126 0 186-38.5t60-124.5q0-111-83.5-183.5t-219.5-72.5q-14 0-64 2l-14-70 7-14 64-6v-38h-236zm188 175q26-2 38-2 107 0 166.5 52.5t59.5 145.5q0 68-39 99.5t-121 31.5q-12 0-40-2z"/><glyph glyph-name="germandbls" unicode="ß" horiz-adv-x="574" d="M-151-163q0 24 22 40l104-27q32 34 49.5 96t33.5 177l42 287q48 328 274 328 70 0 109-35t39-96q0-55-32-170-27 3-43 3-54 0-83.5-19.5t-29.5-52.5q0-23 16.5-41t58.5-50q62-48 77-66 23-29 23-66 0-66-51-110t-132-44q-62 0-97 24t-35 64q0 23 14.5 37t37.5 14q19 0 43-18l-18-50q24-35 71-35 43 0 67.5 22.5t24.5 62.5q0 26-16 45.5t-53 47.5-52 41-29 35.5-14 49.5q0 59 44.5 101.5t117.5 48.5q23 78 23 129 0 84-86 84-151 0-190-263l-45-305q-11-78-27-131.5t-48-97.5q-80-113-156-113-24 0-39 14.5t-15 38.5z"/><glyph glyph-name="agrave" unicode="à" horiz-adv-x="525" d="M17 166q0 99 52 185 80 131 231 131 45 0 90-22l20 22h52q-16-33-38-143l-36-177q-10-47-10-70 0-46 54-46 11 0 56 10v-30q-84-35-123-35-61 0-61 76v8q-80-84-149-84-64 0-101 46.5t-37 128.5zm83 6q0-120 87-120 57 0 118 66l52 264-40 61h-14q-88 0-145.5-76t-57.5-195zm94 564h99l60-190h-50z"/><glyph glyph-name="aacute" unicode="á" horiz-adv-x="525" d="M17 166q0 99 52 185 80 131 231 131 45 0 90-22l20 22h52q-16-33-38-143l-36-177q-10-47-10-70 0-46 54-46 11 0 56 10v-30q-84-35-123-35-61 0-61 76v8q-80-84-149-84-64 0-101 46.5t-37 128.5zm83 6q0-120 87-120 57 0 118 66l52 264-40 61h-14q-88 0-145.5-76t-57.5-195zm166 374l133 190h99l-183-190h-49z"/><glyph glyph-name="acircumflex" unicode="â" horiz-adv-x="525" d="M17 166q0 99 52 185 80 131 231 131 45 0 90-22l20 22h52q-16-33-38-143l-36-177q-10-47-10-70 0-46 54-46 11 0 56 10v-30q-84-35-123-35-61 0-61 76v8q-80-84-149-84-64 0-101 46.5t-37 128.5zm83 6q0-120 87-120 57 0 118 66l52 264-40 61h-14q-88 0-145.5-76t-57.5-195zm61 374l146 190h65l74-190h-55l-61 141-114-141h-55z"/><glyph glyph-name="atilde" unicode="ã" horiz-adv-x="525" d="M17 166q0 99 52 185 80 131 231 131 45 0 90-22l20 22h52q-16-33-38-143l-36-177q-10-47-10-70 0-46 54-46 11 0 56 10v-30q-84-35-123-35-61 0-61 76v8q-80-84-149-84-64 0-101 46.5t-37 128.5zm83 6q0-120 87-120 57 0 118 66l52 264-40 61h-14q-88 0-145.5-76t-57.5-195zm56 401q18 120 108 120 29 0 72-26t58-26q41 0 51 67h42q-7-55-37-87.5t-69-32.5q-33 0-79 25t-56 25q-18 0-31.5-17.5t-15.5-47.5h-43z"/><glyph glyph-name="adieresis" unicode="ä" horiz-adv-x="525" d="M17 166q0 99 52 185 80 131 231 131 45 0 90-22l20 22h52q-16-33-38-143l-36-177q-10-47-10-70 0-46 54-46 11 0 56 10v-30q-84-35-123-35-61 0-61 76v8q-80-84-149-84-64 0-101 46.5t-37 128.5zm83 6q0-120 87-120 57 0 118 66l52 264-40 61h-14q-88 0-145.5-76t-57.5-195zm76 469q0 21 15 36t35 15q22 0 37-15t15-36-15.5-36-36.5-15q-20 0-35 15t-15 36zm186 0q0 21 15 36t36 15q22 0 36.5-15t14.5-36-15-36-36-15q-20 0-35.5 15t-15.5 36z"/><glyph glyph-name="aring" unicode="å" horiz-adv-x="525" d="M17 166q0 99 52 185 80 131 231 131 45 0 90-22l20 22h52q-16-33-38-143l-36-177q-10-47-10-70 0-46 54-46 11 0 56 10v-30q-84-35-123-35-61 0-61 76v8q-80-84-149-84-64 0-101 46.5t-37 128.5zm83 6q0-120 87-120 57 0 118 66l52 264-40 61h-14q-88 0-145.5-76t-57.5-195zm110 481q0 45 31.5 76.5t76.5 31.5 76.5-31.5 31.5-76.5-31-76-77-31q-45 0-76.5 31t-31.5 76zm41 0q0-28 19.5-47t47.5-19 47.5 19.5 19.5 46.5q0 28-19.5 47.5t-47.5 19.5-47.5-19.5-19.5-47.5z"/><glyph glyph-name="ae" unicode="æ" horiz-adv-x="671" d="M2 93q0 147 286 175l12 61q6 29 6 48 0 62-67 62-29 0-67-16l-16-82h-98q0 61 59.5 101t150.5 40q88 0 108-67 82 67 149 67 47 0 75-27t28-72q0-65-71-108.5t-202-52.5q-3-21-3-46 0-61 28-95.5t76-34.5q72 0 160 82v-47q-92-89-194-89-89 0-131 76-106-76-188-76-47 0-74 27.5t-27 73.5zm90 23q0-64 67-64 55 0 123 48-7 42-7 72 0 26 5 59-97-12-142.5-39.5t-45.5-75.5zm268 140q90 5 143 42.5t53 87.5q0 23-15 38t-37 15q-45 0-84-47.5t-60-135.5z"/><glyph glyph-name="ccedilla" unicode="ç" horiz-adv-x="394" d="M8-213l7 36q29-8 58-8 35 0 55 14t20 38q0 28-43 28-5 0-21-2l21 107h36l-12-61q9 1 21 1 63 0 63-56 0-45-38-76t-99-31q-34 0-68 10zm7 385q0 135 83 226 79 87 179 87 40 0 66.5-20.5t26.5-49.5q0-23-17.5-38.5t-45.5-16.5l-58 76h-5q-62 0-106-70.5t-44-179.5q0-65 26.5-100.5t73.5-35.5q75 0 156 83v-46q-93-97-187-97-67 0-107.5 49t-40.5 133z"/><glyph glyph-name="egrave" unicode="è" horiz-adv-x="424" d="M21 173q0 133 89 227 37 39 82 60.5t83 21.5q47 0 75-27t28-72q0-65-71-108.5t-202-52.5q-3-21-3-46 0-61 28-95.5t76-34.5q72 0 160 82v-47q-93-90-194-90-71 0-111 47.5t-40 134.5zm89 83q90 5 143 42.5t53 87.5q0 23-15 38.5t-37 15.5q-45 0-84-48t-60-136zm46 480h99l60-190h-50z"/><glyph glyph-name="eacute" unicode="é" horiz-adv-x="424" d="M21 173q0 133 89 227 37 39 82 60.5t83 21.5q47 0 75-27t28-72q0-65-71-108.5t-202-52.5q-3-21-3-46 0-61 28-95.5t76-34.5q72 0 160 82v-47q-93-90-194-90-71 0-111 47.5t-40 134.5zm89 83q90 5 143 42.5t53 87.5q0 23-15 38.5t-37 15.5q-45 0-84-48t-60-136zm118 290l133 190h99l-183-190h-49z"/><glyph glyph-name="ecircumflex" unicode="ê" horiz-adv-x="424" d="M21 173q0 133 89 227 37 39 82 60.5t83 21.5q47 0 75-27t28-72q0-65-71-108.5t-202-52.5q-3-21-3-46 0-61 28-95.5t76-34.5q72 0 160 82v-47q-93-90-194-90-71 0-111 47.5t-40 134.5zm89 83q90 5 143 42.5t53 87.5q0 23-15 38.5t-37 15.5q-45 0-84-48t-60-136zm13 290l146 190h65l74-190h-55l-61 141-114-141h-55z"/><glyph glyph-name="edieresis" unicode="ë" horiz-adv-x="424" d="M21 173q0 133 89 227 37 39 82 60.5t83 21.5q47 0 75-27t28-72q0-65-71-108.5t-202-52.5q-3-21-3-46 0-61 28-95.5t76-34.5q72 0 160 82v-47q-93-90-194-90-71 0-111 47.5t-40 134.5zm89 83q90 5 143 42.5t53 87.5q0 23-15 38.5t-37 15.5q-45 0-84-48t-60-136zm28 385q0 21 15 36t35 15q22 0 37-15t15-36-15.5-36-36.5-15q-20 0-35 15t-15 36zm186 0q0 21 15 36t36 15q22 0 36.5-15t14.5-36-15-36-36-15q-20 0-35.5 15t-15.5 36z"/><glyph glyph-name="igrave" unicode="ì" horiz-adv-x="287" d="M33 424v26l148 32h26l-72-374q-3-16-3-25 0-39 48-39 28 0 74 15v-31q-84-35-141-35-64 0-64 66 0 19 6 52l59 298zm42 312h99l60-190h-50z"/><glyph glyph-name="iacute" unicode="í" horiz-adv-x="287" d="M33 424v26l148 32h26l-72-374q-3-16-3-25 0-39 48-39 28 0 74 15v-31q-84-35-141-35-64 0-64 66 0 19 6 52l59 298zm114 122l133 190h99l-183-190h-49z"/><glyph glyph-name="icircumflex" unicode="î" horiz-adv-x="287" d="M33 424v26l148 32h26l-72-374q-3-16-3-25 0-39 48-39 28 0 74 15v-31q-84-35-141-35-64 0-64 66 0 19 6 52l59 298zm9 122l146 190h65l74-190h-55l-61 141-114-141h-55z"/><glyph glyph-name="idieresis" unicode="ï" horiz-adv-x="287" d="M33 424v26l148 32h26l-72-374q-3-16-3-25 0-39 48-39 28 0 74 15v-31q-84-35-141-35-64 0-64 66 0 19 6 52l59 298zm24 217q0 21 14.5 36t35.5 15q22 0 37-15t15-36-15.5-36-36.5-15q-20 0-35 15t-15 36zm186 0q0 21 15 36t36 15q22 0 36.5-15t14.5-36-15-36-36-15q-20 0-35.5 15t-15.5 36z"/><glyph glyph-name="eth" unicode="ð" horiz-adv-x="500" d="M22 181q0 128 82 223 66 77 167 77 31 0 59-5-23 57-46 102l-139-56-14 37 131 51-35 51-78 20 4 28 117 16 61-87 118 46 15-35-112-45q91-171 91-306t-71.5-221-179.5-86q-78 0-124 51.5t-46 138.5zm85-1q0-71 26-109.5t71-38.5q66 0 111.5 72t45.5 186q0 76-21 147-29 7-57 7-79 0-127.5-73t-48.5-191z"/><glyph glyph-name="ntilde" unicode="ñ" d="M32 0l83 409-82 15v25l148 33h25l-18-96q120 96 194 96 39 0 61.5-21.5t22.5-58.5q0-26-14-89l-34-155q-11-53-11-66 0-49 52-49 21 0 55 9v-28q-78-30-120-30-73 0-73 60 0 19 8 54l43 185q9 37 9 64 0 33-13 48t-41 15q-59 0-148-82l-62-338h-85zm122 573q18 120 108 120 29 0 72-26t58-26q41 0 51 67h42q-7-55-37-87.5t-69-32.5q-33 0-79 25t-56 25q-18 0-31.5-17.5t-15.5-47.5h-43z"/><glyph glyph-name="ograve" unicode="ò" horiz-adv-x="502" d="M22 181q0 128 80 219 74 83 177 83 78 0 124-52.5t46-143.5q0-122-81-215-70-81-176-81-77 0-123.5 51.5t-46.5 138.5zm85-1q0-71 25.5-109.5t71.5-38.5q65 0 112.5 74.5t47.5 186.5q0 73-26 112t-72 39q-66 0-112.5-75t-46.5-189zm75 556h99l60-190h-50z"/><glyph glyph-name="oacute" unicode="ó" horiz-adv-x="502" d="M22 181q0 128 80 219 74 83 177 83 78 0 124-52.5t46-143.5q0-122-81-215-70-81-176-81-77 0-123.5 51.5t-46.5 138.5zm85-1q0-71 25.5-109.5t71.5-38.5q65 0 112.5 74.5t47.5 186.5q0 73-26 112t-72 39q-66 0-112.5-75t-46.5-189zm147 366l133 190h99l-183-190h-49z"/><glyph glyph-name="ocircumflex" unicode="ô" horiz-adv-x="502" d="M22 181q0 128 80 219 74 83 177 83 78 0 124-52.5t46-143.5q0-122-81-215-70-81-176-81-77 0-123.5 51.5t-46.5 138.5zm85-1q0-71 25.5-109.5t71.5-38.5q65 0 112.5 74.5t47.5 186.5q0 73-26 112t-72 39q-66 0-112.5-75t-46.5-189zm42 366l146 190h65l74-190h-55l-61 141-114-141h-55z"/><glyph glyph-name="otilde" unicode="õ" horiz-adv-x="502" d="M22 181q0 128 80 219 74 83 177 83 78 0 124-52.5t46-143.5q0-122-81-215-70-81-176-81-77 0-123.5 51.5t-46.5 138.5zm85-1q0-71 25.5-109.5t71.5-38.5q65 0 112.5 74.5t47.5 186.5q0 73-26 112t-72 39q-66 0-112.5-75t-46.5-189zm37 393q18 120 108 120 29 0 72-26t58-26q41 0 51 67h42q-7-55-37-87.5t-69-32.5q-33 0-79 25t-56 25q-18 0-31.5-17.5t-15.5-47.5h-43z"/><glyph glyph-name="odieresis" unicode="ö" horiz-adv-x="502" d="M22 181q0 128 80 219 74 83 177 83 78 0 124-52.5t46-143.5q0-122-81-215-70-81-176-81-77 0-123.5 51.5t-46.5 138.5zm85-1q0-71 25.5-109.5t71.5-38.5q65 0 112.5 74.5t47.5 186.5q0 73-26 112t-72 39q-66 0-112.5-75t-46.5-189zm57 461q0 21 15 36t35 15q22 0 37-15t15-36-15.5-36-36.5-15q-20 0-35 15t-15 36zm186 0q0 21 15 36t36 15q22 0 36.5-15t14.5-36-15-36-36-15q-20 0-35.5 15t-15.5 36z"/><glyph glyph-name="divide" unicode="÷" horiz-adv-x="833" d="M124 270v57h585v-57h-585zm237-148q0 24 16.5 40t39.5 16 39.5-16.5 16.5-39.5-16-39.5-40-16.5q-23 0-39.5 16.5t-16.5 39.5zm0 352q0 23 16.5 39.5t39.5 16.5 39.5-16.5 16.5-39.5-16-39.5-40-16.5-40 16.5-16 39.5z"/><glyph glyph-name="oslash" unicode="ø" horiz-adv-x="502" d="M22 181q0 128 80 219 74 83 177 83 49 0 83-20l52 84 28-18-54-84q61-55 61-158 0-122-81-215-72-81-176-81-37 0-76 16l-56-87-25 17 53 87q-66 57-66 157zm80 1q0-55 20-101l212 335q-27 28-66 28-68 0-117-76t-49-186zm41-127q23-23 61-23 69 0 118 74.5t49 184.5q0 61-18 95z"/><glyph glyph-name="ugrave" unicode="ù" horiz-adv-x="553" d="M30 424v26l157 33 16-14-63-291q-11-53-11-74 0-26 15.5-40.5t42.5-14.5q62 0 142 63l75 361h81l-71-326q-10-50-10-68 0-16 14.5-27.5t37.5-11.5q18 0 56 11v-28q-85-31-128-31-60 0-60 64 0 12 1 19-99-83-181-83-45 0-71 25t-26 69q0 23 8 60l58 263zm156 312h99l60-190h-50z"/><glyph glyph-name="uacute" unicode="ú" horiz-adv-x="553" d="M30 424v26l157 33 16-14-63-291q-11-53-11-74 0-26 15.5-40.5t42.5-14.5q62 0 142 63l75 361h81l-71-326q-10-50-10-68 0-16 14.5-27.5t37.5-11.5q18 0 56 11v-28q-85-31-128-31-60 0-60 64 0 12 1 19-99-83-181-83-45 0-71 25t-26 69q0 23 8 60l58 263zm228 122l133 190h99l-183-190h-49z"/><glyph glyph-name="ucircumflex" unicode="û" horiz-adv-x="553" d="M30 424v26l157 33 16-14-63-291q-11-53-11-74 0-26 15.5-40.5t42.5-14.5q62 0 142 63l75 361h81l-71-326q-10-50-10-68 0-16 14.5-27.5t37.5-11.5q18 0 56 11v-28q-85-31-128-31-60 0-60 64 0 12 1 19-99-83-181-83-45 0-71 25t-26 69q0 23 8 60l58 263zm123 122l146 190h65l74-190h-55l-61 141-114-141h-55z"/><glyph glyph-name="udieresis" unicode="ü" horiz-adv-x="553" d="M30 424v26l157 33 16-14-63-291q-11-53-11-74 0-26 15.5-40.5t42.5-14.5q62 0 142 63l75 361h81l-71-326q-10-50-10-68 0-16 14.5-27.5t37.5-11.5q18 0 56 11v-28q-85-31-128-31-60 0-60 64 0 12 1 19-99-83-181-83-45 0-71 25t-26 69q0 23 8 60l58 263zm138 217q0 21 15 36t35 15q22 0 37-15t15-36-15.5-36-36.5-15q-20 0-35 15t-15 36zm186 0q0 21 15 36t36 15q22 0 36.5-15t14.5-36-15-36-36-15q-20 0-35.5 15t-15.5 36z"/><glyph glyph-name="yacute" unicode="ý" horiz-adv-x="475" d="M-113-151q0 21 15 36t39 19l59-59q45 3 87.5 46.5t87.5 129.5l-3-2-62 301q-13 69-40 104l-85 7v22l98 32q4 1 13 1 40 0 56.5-37.5t36.5-139.5q4-25 7-38l33-169 157 380h19l79-26v-21l-51-30q-42-47-106.5-186.5t-89.5-184.5q-138-251-266-251-36 0-60 19.5t-24 46.5zm354 697l133 190h99l-183-190h-49z"/><glyph glyph-name="thorn" unicode="þ" horiz-adv-x="516" d="M-69-188l59 12 10 11 149 835-89 10v26l152 30h27q-10-55-12-65l-44-250q88 62 151 62 60 0 93.5-45.5t33.5-129.5q0-129-85-223-38-42-88.5-65.5t-101.5-23.5q-37 0-77 19l-33-186 95-17v-30h-240v30zm188 255q45-27 86-27 66 0 112 61 26 35 43.5 91t17.5 114-24.5 91-65.5 33q-44 0-112-53z"/><glyph glyph-name="ydieresis" unicode="ÿ" horiz-adv-x="475" d="M-113-151q0 21 15 36t39 19l59-59q45 3 87.5 46.5t87.5 129.5l-3-2-62 301q-13 69-40 104l-85 7v22l98 32q4 1 13 1 40 0 56.5-37.5t36.5-139.5q4-25 7-38l33-169 157 380h19l79-26v-21l-51-30q-42-47-106.5-186.5t-89.5-184.5q-138-251-266-251-36 0-60 19.5t-24 46.5zm264 792q0 21 14.5 36t35.5 15q22 0 37-15t15-36-15.5-36-36.5-15q-20 0-35 15t-15 36zm186 0q0 21 15 36t36 15q22 0 36.5-15t14.5-36-15-36-36-15q-20 0-35.5 15t-15.5 36z"/><glyph glyph-name="OE" unicode="Œ" horiz-adv-x="1007" d="M41 259q0 103 40.5 193t113.5 151q96 79 216 79 139 0 195-126l20 115h378l-29-146h-48v85l-10 15h-215l-49-253h152l17 14 23 73h43l-43-220h-41l4 72-11 14h-153l-54-279h255l17 16 35 101h46l-32-163h-412l15 85q-91-97-210-97-116 0-189.5 76t-73.5 195zm96-6q0-100 47.5-158.5t125.5-58.5q105 0 182 113 79 117 79 270 0 101-47 159t-126 58q-105 0-182-113-79-114-79-270z"/><glyph glyph-name="oe" unicode="œ" horiz-adv-x="750" d="M22 181q0 128 80 219 74 83 177 83 106 0 150-93 84 93 173 93 47 0 74.5-27.5t27.5-72.5q0-65-71-108.5t-202-52.5q-3-21-3-46 0-60 28.5-95t76.5-35q71 0 159 82v-47q-93-90-193-90-95 0-133 80-74-80-174-80-77 0-123.5 51.5t-46.5 138.5zm86-3q0-70 25.5-108t69.5-38q64 0 110 74.5t46 186.5q0 73-25.5 112t-70.5 39q-64 0-109.5-75t-45.5-191zm329 78q90 5 142.5 42.5t52.5 87.5q0 23-14.5 38.5t-36.5 15.5q-45 0-84-48t-60-136z"/><glyph glyph-name="Ydieresis" unicode="Ÿ" horiz-adv-x="562" d="M31 633v38h243v-38l-65-5-16-15 90-283 209 283-10 15-64 5v38h224v-38l-66-5-16-15-254-332-44-223 13-14 65-6v-38h-243v38l63 6 16 14 42 214-112 341-10 15zm190 200q0 21 14.5 36t35.5 15q22 0 37-15t15-36-15.5-36-36.5-15q-20 0-35 15t-15 36zm186 0q0 21 15 36t36 15q22 0 36.5-15t14.5-36-15-36-36-15q-20 0-35.5 15t-15.5 36z"/><glyph glyph-name="circumflex" unicode="ˆ" horiz-adv-x="500" d="M148 546l146 190h65l74-190h-55l-61 141-114-141h-55z"/><glyph glyph-name="tilde" unicode="˜" horiz-adv-x="500" d="M143 573q18 120 108 120 29 0 72-26t58-26q41 0 51 67h42q-7-55-37-87.5t-69-32.5q-33 0-79 25t-56 25q-18 0-31.5-17.5t-15.5-47.5h-43z"/><glyph glyph-name="uni2000" horiz-adv-x="490"/><glyph glyph-name="uni2001" horiz-adv-x="980"/><glyph glyph-name="uni2002" horiz-adv-x="490"/><glyph glyph-name="uni2003" horiz-adv-x="980"/><glyph glyph-name="uni2004" horiz-adv-x="326"/><glyph glyph-name="uni2005" horiz-adv-x="245"/><glyph glyph-name="uni2006" horiz-adv-x="163"/><glyph glyph-name="uni2007" horiz-adv-x="163"/><glyph glyph-name="uni2008" horiz-adv-x="122"/><glyph glyph-name="uni2009" horiz-adv-x="196"/><glyph glyph-name="uni200A" horiz-adv-x="54"/><glyph glyph-name="uni2010" unicode="‐" horiz-adv-x="319" d="M23 207l13 67h224l-13-67h-224z"/><glyph glyph-name="uni2011" unicode="‑" horiz-adv-x="319" d="M23 207l13 67h224l-13-67h-224z"/><glyph glyph-name="figuredash" unicode="‒" horiz-adv-x="319" d="M23 207l13 67h224l-13-67h-224z"/><glyph glyph-name="endash" unicode="–" horiz-adv-x="500" d="M-24 210l12 61h499l-11-61h-500z"/><glyph glyph-name="emdash" unicode="—" horiz-adv-x="1000" d="M-19 210l12 61h998l-12-61h-998z"/><glyph glyph-name="quoteleft" unicode="‘" horiz-adv-x="201" d="M70 509q0 96 133 204h43q-112-103-112-175v-2h64q7-13 7-26 0-27-20.5-47.5t-50.5-20.5q-29 0-46.5 18t-17.5 49z"/><glyph glyph-name="quoteright" unicode="’" horiz-adv-x="201" d="M51 442q112 102 112 173v4h-64q-7 13-7 26 0 27 21 47.5t50 20.5 46.5-18 17.5-48q0-97-133-205h-43z"/><glyph glyph-name="quotesinglbase" unicode="‚" horiz-adv-x="201" d="M-65-164q112 103 112 176h-64q-7 13-7 27 0 27 20.5 47t50.5 20q29 0 46.5-17.5t17.5-47.5q0-97-133-205h-43z"/><glyph glyph-name="quotedblleft" unicode="“" horiz-adv-x="403" d="M70 509q0 96 133 204h43q-112-103-112-175v-2h64q7-13 7-26 0-27-20.5-47.5t-50.5-20.5q-29 0-46.5 18t-17.5 49zm202 0q0 96 133 204h43q-112-103-112-173v-4h64q7-13 7-26 0-27-21-47.5t-51-20.5q-29 0-46 18t-17 49z"/><glyph glyph-name="quotedblright" unicode="”" horiz-adv-x="403" d="M51 442q112 102 112 173v4h-64q-7 13-7 26 0 27 21 47.5t50 20.5 46.5-18 17.5-48q0-97-133-205h-43zm202 0q112 102 112 173v4h-65q-7 13-7 26 0 27 21 47.5t51 20.5q29 0 46-18t17-48q0-98-132-205h-43z"/><glyph glyph-name="quotedblbase" unicode="„" horiz-adv-x="403" d="M-65-164q112 103 112 176h-64q-7 13-7 27 0 27 20.5 47t50.5 20q29 0 46.5-17.5t17.5-47.5q0-97-133-205h-43zm202 0q112 103 112 176h-65q-7 13-7 27 0 27 21 47t51 20q29 0 46-17.5t17-47.5q0-98-132-205h-43z"/><glyph glyph-name="bullet" unicode="•" horiz-adv-x="590" d="M150 372q0 60 42.5 102t102.5 42q59 0 101.5-42t42.5-102q0-59-42.5-102t-102.5-43-102 42.5-42 102.5z"/><glyph glyph-name="ellipsis" unicode="…" horiz-adv-x="1000" d="M54 54q0 25 17 42.5t42 17.5 42.5-17.5 17.5-42.5-17.5-42-42.5-17q-24 0-41.5 17t-17.5 42zm333 0q0 25 17 42.5t42 17.5 42.5-17.5 17.5-42.5-17.5-42-42.5-17q-24 0-41.5 17t-17.5 42zm334 0q0 25 17 42.5t42 17.5 42.5-17.5 17.5-42.5-17.5-42-42.5-17q-24 0-41.5 17t-17.5 42z"/><glyph glyph-name="uni202F" horiz-adv-x="196"/><glyph glyph-name="guilsinglleft" unicode="‹" horiz-adv-x="245" d="M13 200l15 80 190 133-13-66-138-107 97-108-13-65z"/><glyph glyph-name="guilsinglright" unicode="›" horiz-adv-x="245" d="M-6 67l12 65 138 108-96 107 12 66 139-133-15-80z"/><glyph glyph-name="uni205F" horiz-adv-x="245"/><glyph glyph-name="trademark" unicode="™" horiz-adv-x="822" d="M118 593v69h229v-69h-26l-6 40-7 6h-52v-214l38-4v-22h-122v22l39 4v214h-52l-8-6-6-40h-27zm259 46v23h102v-12l68-180 69 179v13h100v-23l-32-5v-209l32-4v-22h-107v22l30 4v212l-92-238h-22l-88 238v-212l31-4v-22h-90v22l31 4v209z"/><glyph glyph-name="uniFB01" unicode="ﬁ" horiz-adv-x="574" d="M-151-163q0 24 22 40l104-27q32 34 49.5 96t33.5 177l42 287-67-7 1 33 76 31q24 126 81 195.5t129 69.5q35 0 59-18t24-41q0-20-13-34t-36-18l-82 67q-57-37-90-233h166l125 27h26l-72-374q-3-16-3-25 0-39 48-39 28 0 74 15v-31q-84-35-141-35-64 0-64 66 0 19 6 52l59 298-232 1-40-284q-22-154-75-229-80-113-156-113-24 0-39 14.5t-15 38.5zm590 813q0 22 15.5 38t38.5 16q22 0 38-16t16-38-16-38-38-16q-23 0-38.5 15.5t-15.5 38.5z"/><glyph glyph-name="uniFB02" unicode="ﬂ" horiz-adv-x="579" d="M-151-163q0 24 22 40l104-27q32 34 49.5 96t33.5 177l42 287-67-7 1 33 76 31q24 126 81 195.5t129 69.5q40 0 63-22l132 26h27q-10-52-12-65l-101-503q-11-55-11-81 0-47 55-47 23 0 71 16v-31q-81-34-133-34-72 0-72 74 0 27 17 115l96 490-49 5-49-54-82 67q-57-37-90-233h140v-46h-148l-40-283q-22-154-75-229-80-113-156-113-24 0-39 14.5t-15 38.5z"/><glyph glyph-name="uniFB03" unicode="ﬃ" horiz-adv-x="871" d="M617 424v26l148 32h26l-72-374q-3-16-3-25 0-39 48-39 28 0 74 15v-31q-84-35-141-35-64 0-64 66 0 19 6 52l59 298zm114 226q0 22 15.5 38t38.5 16q22 0 38-16t16-38-16-38-38-16q-23 0-38.5 15.5t-15.5 38.5zm-590-813q0 24 22 40l104-27q32 34 49.5 96t33.5 177l42 287-67-7 1 33 76 31q24 126 81 195.5t129 69.5q35 0 59-18t24-41q0-20-13-34t-36-18l-82 67q-57-37-90-233h141v-45h-149l-40-284q-22-154-75-229-80-113-156-113-24 0-39 14.5t-15 38.5zm-292 0q0 24 22 40l104-27q32 34 49.5 96t33.5 177l42 287-67-7 1 33 76 31q24 126 81 195.5t129 69.5q35 0 59-18t24-41q0-20-13-34t-36-18l-82 67q-57-37-90-233h141v-45h-149l-40-284q-22-154-75-229-80-113-156-113-24 0-39 14.5t-15 38.5z"/><glyph glyph-name="uniFB04" unicode="ﬄ" horiz-adv-x="859" d="M619 65q0 22 18 115l96 490-89 10v26l152 30h27q-10-52-12-65l-101-503q-11-55-11-81 0-47 55-47 23 0 71 16v-31q-81-34-133-34-73 0-73 74zm-478-228q0 24 22 40l104-27q32 34 49.5 96t33.5 177l42 287-67-7 1 33 76 31q24 126 81 195.5t129 69.5q35 0 59-18t24-41q0-20-13-34t-36-18l-82 67q-57-37-90-233h141v-45h-149l-40-284q-22-154-75-229-80-113-156-113-24 0-39 14.5t-15 38.5zm-292 0q0 24 22 40l104-27q32 34 49.5 96t33.5 177l42 287-67-7 1 33 76 31q24 126 81 195.5t129 69.5q35 0 59-18t24-41q0-20-13-34t-36-18l-82 67q-57-37-90-233h141v-45h-149l-40-284q-22-154-75-229-80-113-156-113-24 0-39 14.5t-15 38.5z"/></font>
</defs>
</svg>
